<?xml version="1.0" standalone="no"?><!DOCTYPE svg PUBLIC "-//W3C//DTD SVG 1.1//EN" "http://www.w3.org/Graphics/SVG/1.1/DTD/svg11.dtd"><svg t="1639809171533" class="icon" viewBox="0 0 1024 1024" version="1.1" xmlns="http://www.w3.org/2000/svg" p-id="2230" xmlns:xlink="http://www.w3.org/1999/xlink" width="200" height="200"><defs><style type="text/css"></style></defs><path d="M752.941176 903.529412v60.235294H271.058824v-60.235294h481.882352z m0-843.294118v180.705882h180.705883a60.235294 60.235294 0 0 1 59.813647 53.187765L993.882353 301.176471v421.647058a60.235294 60.235294 0 0 1-53.248 59.873883L933.647059 783.058824h-120.470588v-120.470589h-60.235295v240.820706h-60.235294V662.588235H331.294118v240.941177H271.058824v-240.941177H210.823529V783.058824H90.473412a60.235294 60.235294 0 0 1-59.873883-53.187765L30.117647 722.823529V301.176471a60.235294 60.235294 0 0 1 53.187765-59.873883L90.352941 240.941176h180.705883V60.235294h481.882352z m150.588236 240.941177h-783.058824a29.515294 29.515294 0 0 0-29.876706 25.840941L90.352941 331.836235v361.411765a30.117647 30.117647 0 0 0 24.756706 29.093647l5.360941 0.481882H150.588235v-120.470588H873.411765v120.470588h30.117647a29.515294 29.515294 0 0 0 29.756235-24.816941L933.647059 693.308235V330.691765a30.117647 30.117647 0 0 0-30.117647-29.515294zM391.529412 361.411765v60.235294H210.823529V361.411765h180.705883z m301.17647-240.941177H331.294118v120.591059h361.411764V120.470588z" p-id="2231"></path></svg>